<?xml version="1.0" encoding="utf-8"?>
<!-- Generator: Adobe Illustrator 16.0.4, SVG Export Plug-In . SVG Version: 6.00 Build 0)  -->
<!DOCTYPE svg PUBLIC "-//W3C//DTD SVG 1.1//EN" "http://www.w3.org/Graphics/SVG/1.1/DTD/svg11.dtd">
<svg version="1.1" id="Layer_1" xmlns="http://www.w3.org/2000/svg" xmlns:xlink="http://www.w3.org/1999/xlink" x="0px" y="0px"
	 width="212.599px" height="70.866px" viewBox="0 0 212.599 70.866" enable-background="new 0 0 212.599 70.866"
	 xml:space="preserve">
<g>
	<path fill="#184D90" d="M14.154,29.665h5.707c3.232,0,5.216,2.033,5.216,5.021c0,2.841-1.959,4.922-5.314,4.922H17.51v5.314h-3.355
		V29.665z M19.322,37.109c1.617,0,2.351-0.955,2.351-2.424c0-1.445-0.734-2.375-2.351-2.375H17.51v4.8H19.322z"/>
	<path fill="#184D90" d="M26.277,38.922c0-3.233,1.861-6.221,5.829-6.221c3.943,0,5.78,2.718,5.78,6.221
		c0,3.208-1.861,6.196-5.804,6.196S26.277,42.399,26.277,38.922z M34.506,38.922c0-2.18-0.612-3.796-2.424-3.796
		c-1.812,0-2.4,1.617-2.4,3.796s0.587,3.747,2.424,3.747C33.918,42.669,34.506,41.102,34.506,38.922z"/>
	<path fill="#184D90" d="M39.036,32.897h3.331l1.861,6.441c0.269,0.882,0.465,1.69,0.587,2.302h0.049
		c0.171-0.71,0.343-1.396,0.612-2.253l1.175-3.747l-0.857-2.743h3.331l1.812,6.515c0.245,0.857,0.441,1.616,0.563,2.229h0.049
		c0.171-0.686,0.294-1.445,0.515-2.327l1.592-6.417h3.184l-3.453,12.025h-3.649l-1.641-5.706h-0.049l-1.714,5.706h-3.576
		L39.036,32.897z"/>
	<path fill="#184D90" d="M57.967,38.922c0-3.404,1.959-6.221,5.706-6.221c3.87,0,5.119,2.694,5.119,5.584
		c0,0.294-0.024,0.784-0.074,1.126h-7.396c0.049,1.983,0.784,3.257,3.11,3.257c1.445,0,2.694-0.343,3.551-0.735v2.498
		c-0.98,0.392-2.327,0.686-3.796,0.686C59.804,45.118,57.967,42.571,57.967,38.922z M65.583,37.501v-0.123
		c0-1.151-0.612-2.278-1.91-2.278c-1.273,0-2.106,0.857-2.253,2.4H65.583z"/>
	<path fill="#184D90" d="M71.143,32.897h3.208v1.273c0.784-0.931,1.837-1.469,3.037-1.469c0.416,0,0.759,0.074,1.004,0.147v2.865
		c-0.294-0.073-0.71-0.147-1.273-0.147c-1.2,0-2.082,0.392-2.718,0.833v8.522h-3.257V32.897z"/>
	<path fill="#184D90" d="M79.176,38.922c0-3.404,1.959-6.221,5.706-6.221c3.87,0,5.119,2.694,5.119,5.584
		c0,0.294-0.024,0.784-0.074,1.126h-7.396c0.049,1.983,0.784,3.257,3.11,3.257c1.445,0,2.694-0.343,3.551-0.735v2.498
		c-0.979,0.392-2.327,0.686-3.796,0.686C81.013,45.118,79.176,42.571,79.176,38.922z M86.792,37.501v-0.123
		c0-1.151-0.612-2.278-1.91-2.278c-1.273,0-2.106,0.857-2.253,2.4H86.792z"/>
	<path fill="#184D90" d="M91.568,39.044c0-3.527,2.13-6.343,5.559-6.343c1.2,0,1.861,0.27,2.18,0.417v-4.849h3.257v16.653h-3.257
		v-0.931c-0.539,0.588-1.494,1.126-2.865,1.126C93.111,45.118,91.568,42.644,91.568,39.044z M99.307,41.885v-6.368
		c-0.343-0.171-0.881-0.343-1.518-0.343c-1.886,0-2.768,1.445-2.768,3.723c0,2.033,0.612,3.649,2.498,3.649
		C98.229,42.546,98.891,42.301,99.307,41.885z"/>
	<path fill="#184D90" d="M111.772,44.285V28.269h3.282v5.51c0.465-0.49,1.469-1.078,2.841-1.078c3.502,0,4.898,2.718,4.898,6.049
		c0,3.429-2.082,6.367-6.27,6.367C114.809,45.118,113.021,44.775,111.772,44.285z M119.315,38.897c0-2.131-0.637-3.625-2.547-3.625
		c-0.686,0-1.347,0.27-1.714,0.588v6.539c0.416,0.123,1.004,0.196,1.518,0.196C118.458,42.595,119.315,41.15,119.315,38.897z"/>
	<path fill="#184D90" d="M124.482,49.306v-2.449c0.417,0.123,0.906,0.221,1.445,0.221c1.126,0,1.788-0.588,2.057-1.592l0.123-0.49
		l-4.237-12.098h3.429l2.547,8.253h0.049l2.278-8.253h3.355l-4.506,13.25c-0.784,2.351-2.057,3.379-4.702,3.379
		C125.609,49.526,125.046,49.453,124.482,49.306z"/>
</g>
<path fill="#1BB2B4" d="M190.909,39.752c-2.513-8.159-7.555-18.056-10.458-23.649c2.713,0.191,4.852,0.495,7.165,1.113
	C187.638,22.751,190.484,32.218,190.909,39.752"/>
<path fill="#2162A8" d="M143.166,44.259v-3.348c1.145,0.543,2.559,1.088,4.101,1.088c1.638,0,2.354-0.545,2.354-1.439
	c0-1.191-1.065-1.214-3.449-2.256c-1.563-0.667-3.027-1.86-3.027-4.44c0-3.134,2.355-4.574,5.583-4.574
	c1.713,0,3.104,0.377,3.974,0.695v3.279c-0.799-0.375-2.233-0.848-3.675-0.848c-1.415,0-2.062,0.474-2.062,1.297
	c0,0.892,0.842,1.209,2.279,1.736c2.367,0.842,4.425,1.766,4.425,4.939c0,3.155-2.484,4.765-5.715,4.765
	C145.942,45.151,144.407,44.809,143.166,44.259"/>
<path fill="#2162A8" d="M180.633,39.738v-6.933c-6.617-4.312-13.742-8.814-19.309-12.829c-2.248,2.046-3.878,5.512-4.602,9.527
	h3.869v10.24c1.113,0,2.399,0,3.8,0v-10.24h5.64c5.684,0,7.768,3.721,7.768,7.715c0,0.841-0.106,1.706-0.33,2.52H180.633"/>
<path fill="#E75425" d="M186.916,39.743c-0.917,0-1.87,0-2.863-0.005v5.229h-3.426v-5.229h-3.159
	c-0.772,2.824-2.989,5.229-7.517,5.229h-5.561v-5.225c-1.4,0-2.687,0-3.8,0v5.225h-3.869c0.877,5.832,3.186,9.805,8.694,11.629
	c7.173-5.107,16.118-9.005,22.923-14.565L186.916,39.743z"/>
<path fill="#E77D38" d="M188.34,42.031c-6.806,5.56-15.75,9.458-22.923,14.565c1.92,0.701,3.994,1.138,6.345,1.439
	c5.292-4.765,11.98-9.274,16.977-15.361L188.34,42.031z"/>
<path fill="#682680" d="M190.49,44.967h-0.324l-1.427-2.293c-4.997,6.087-11.685,10.597-16.977,15.361
	c6.308,0.74,12.378,0.669,17.359-1.06C188.656,53.027,189.82,49.343,190.49,44.967"/>
<path fill="#30A9D0" d="M192.591,44.967h-2.102c-0.67,4.376-1.836,8.06-1.369,12.008c2.705-0.961,4.403-2.16,5.937-4.305
	C193.563,49.725,193.161,47.428,192.591,44.967"/>
<path fill="#FFFFFF" d="M194.308,44.355v0.612h-1.717c0.568,2.46,0.972,4.758,2.466,7.703c0.818-1.156,1.516-2.637,2.014-4.18
	C195.786,46.789,195.038,45.542,194.308,44.355"/>
<path fill="#09903B" d="M198.614,33.916c-1.845,0.876-2.874,2.44-4.306,3.794v6.641c0.73,1.191,1.478,2.438,2.763,4.141
	C198.478,44.086,198.824,39.273,198.614,33.916"/>
<path fill="#FFFFFF" d="M198.469,31.735c-1.825,1.318-2.827,3.275-4.161,5.034v0.945c1.432-1.352,2.46-2.923,4.306-3.799
	C198.581,33.118,198.543,32.508,198.469,31.735"/>
<path fill="#E75425" d="M197.923,28.056c-1.655,1.858-2.57,4.25-3.615,6.54v2.173c1.334-1.759,2.336-3.716,4.161-5.034
	C198.348,30.448,198.171,29.22,197.923,28.056"/>
<path fill="#20325E" d="M194.308,34.596c1.045-2.291,1.96-4.682,3.615-6.54c-0.042-0.228-0.032-0.154-0.087-0.382
	c-0.633-2.759-1.567-4.836-3.186-6.593c-1.131,2.41-1.592,5.37-1.962,8.421h1.62v4.79V34.596z"/>
<path fill="#50B075" d="M192.688,29.502c0.37-3.051,0.831-6.011,1.962-8.421c-0.672-0.722-1.433-1.354-2.308-1.897
	c-0.897,2.831-0.95,6.51-0.95,10.318H192.688z"/>
<path fill="#20325E" d="M191.12,29.502c-0.108-3.948-0.176-7.77,0.628-10.672c-0.182-0.097-0.119-0.069-0.309-0.166
	c-0.75,2.934-0.622,6.816-0.461,10.837H191.12z"/>
<path fill="#50B075" d="M190.881,29.502h0.096c-0.16-4.021-0.289-7.903,0.461-10.837c-0.369-0.191-0.889-0.442-1.297-0.605
	c-0.756,4.434,0.438,11.183,0.74,17.327V29.502z"/>
<path fill="#2162A8" d="M190.881,37.344v-1.957c-0.302-6.145-1.496-12.894-0.74-17.327c-0.811-0.333-1.612-0.596-2.526-0.844
	c0.022,5.535,2.875,15.002,3.293,22.536C190.854,39.057,190.881,37.995,190.881,37.344"/>
<path fill="#E77D38" d="M190.909,39.752c-2.513-8.159-7.555-18.056-10.458-23.649c-1.877-0.133-3.521-0.17-5.4-0.12
	c4.754,5.508,11.094,14.563,15.19,22.471C190.5,38.924,190.733,39.389,190.909,39.752"/>
<path fill="#682680" d="M175.05,15.983c-0.274,0.005-0.625,0.016-0.895,0.035c3.197,3.498,7.018,8.379,10.494,13.482h0.076
	l1.036,1.651l0,0l3.349,5.383c0,0,0.004,0.004,0.008,0.004l0.423,0.679c0.236,0.389,0.481,0.816,0.699,1.237
	C186.144,30.547,179.804,21.491,175.05,15.983"/>
<path fill="#30A9D0" d="M184.649,29.502c-3.476-5.105-7.297-9.987-10.494-13.484c-0.532,0.021-0.789,0.035-1.312,0.069
	c3.46,3.539,7.536,8.375,11.256,13.416H184.649z"/>
<path fill="#09903B" d="M184.099,29.502c-3.722-5.041-7.796-9.876-11.256-13.416c-1.047,0.081-1.975,0.177-2.956,0.329
	c3.986,3.583,8.581,8.253,12.821,13.086H184.099z"/>
<path fill="#FFFFFF" d="M180.633,29.502h2.075c-4.24-4.833-8.835-9.504-12.821-13.086c-1.708,0.267-3.072,0.586-4.494,1.125
	c4.654,3.695,10.113,8.124,15.24,12.597V29.502z"/>
<path fill="#E75425" d="M180.633,30.137c-5.127-4.473-10.585-8.901-15.24-12.597c-1.016,0.379-1.943,0.851-2.774,1.414
	c5.326,3.974,11.896,8.524,18.014,12.97V30.137z"/>
<path fill="#20325E" d="M180.633,31.924c-6.118-4.445-12.688-8.996-18.014-12.97c-0.168,0.115-0.111,0.076-0.274,0.187
	c5.379,3.985,12.067,8.545,18.288,12.965V31.924z"/>
<path fill="#FFFFFF" d="M191.393,29.502c0-3.808,0.053-7.487,0.95-10.318c-0.176-0.11-0.41-0.249-0.595-0.354
	c-0.799,2.902-0.736,6.724-0.632,10.672H191.393z"/>
<path fill="#2162A8" d="M186.916,39.743l-1.573-2.525c-0.417-0.655-0.904-1.465-1.234-2.125c-0.043-0.085-0.091-0.177-0.131-0.255
	c0.008,0.058,0.008,0.12,0.011,0.173c0.029,0.662,0.063,1.43,0.063,2.085v2.642C185.046,39.743,185.999,39.743,186.916,39.743"/>
<path fill="#50B075" d="M180.633,32.106c-6.221-4.42-12.909-8.98-18.288-12.965c-0.326,0.234-0.73,0.572-1.021,0.834
	c5.567,4.015,12.692,8.518,19.309,12.829V32.106z"/>
<path fill="#E75425" d="M173.352,39.738c-1.742,0-3.455,0-5.089,0.005v2.046h1.316C171.735,41.789,172.835,40.982,173.352,39.738"/>
<path fill="#2162A8" d="M169.728,32.628h-1.466v7.11h5.089c0.292-0.708,0.401-1.568,0.401-2.52
	C173.752,34.589,172.979,32.628,169.728,32.628"/>
<path fill="#FFFFFF" d="M180.633,31.924v-1.787v-0.635h2.075h1.391h0.55h0.076l1.032,1.646l3.353,5.386l0.002,0.014l0.429,0.669
	c0.236,0.389,0.481,0.816,0.699,1.237c0.26,0.469,0.493,0.934,0.668,1.297c-0.053-0.695-0.028-1.757-0.028-2.408v-1.957v-5.885
	h0.096h0.139h0.277h1.296h1.62v4.79v0.304v2.173v0.941v6.641v0.616h-1.717h-2.102h-0.324l-1.427-2.293l-0.398-0.644l-1.424-2.288
	l-1.573-2.525c-0.417-0.655-0.904-1.465-1.234-2.125c-0.043-0.085-0.091-0.177-0.131-0.25c0.008,0.053,0.008,0.115,0.011,0.168
	c0.029,0.662,0.063,1.43,0.063,2.085v2.642v5.229h-3.42v-5.229v-6.933v-0.699V31.924z"/>
<rect x="156.722" y="29.502" fill="#FFFFFF" width="3.869" height="15.465"/>
<path fill="#FFFFFF" d="M173.352,39.738c-0.517,1.244-1.617,2.051-3.773,2.051h-1.316v-2.051v-7.11h1.466
	c3.251,0,4.022,1.961,4.022,4.59C173.75,38.167,173.644,39.03,173.352,39.738 M170.03,29.502h-5.64v10.24v5.225h5.561
	c4.528,0,6.744-2.405,7.517-5.229c0.224-0.814,0.33-1.679,0.33-2.52C177.798,33.223,175.714,29.502,170.03,29.502"/>
</svg>
